<svg width="13" height="20" viewBox="0 0 13 20" fill="none" xmlns="http://www.w3.org/2000/svg">
<path d="M10.0665 0H2.97118C2.38312 0 1.81915 0.233605 1.40333 0.649425C0.987511 1.06524 0.753906 1.62922 0.753906 2.21727V17.2947C0.753906 17.8828 0.987511 18.4468 1.40333 18.8626C1.81915 19.2784 2.38312 19.512 2.97118 19.512H10.0665C10.6545 19.512 11.2185 19.2784 11.6343 18.8626C12.0501 18.4468 12.2837 17.8828 12.2837 17.2947V2.21727C12.2837 1.62922 12.0501 1.06524 11.6343 0.649425C11.2185 0.233605 10.6545 0 10.0665 0ZM6.51882 18.6251C5.78269 18.6251 5.18846 18.0309 5.18846 17.2947C5.18846 16.5586 5.78269 15.9644 6.51882 15.9644C7.25496 15.9644 7.84918 16.5586 7.84918 17.2947C7.84918 18.0309 7.25496 18.6251 6.51882 18.6251ZM10.5099 15.0775H2.52773V2.66073H10.5099V15.0775Z" fill="white"/>
</svg>
