<svg width="20" height="20" viewBox="0 0 20 20" fill="none" xmlns="http://www.w3.org/2000/svg">
<path fill-rule="evenodd" clip-rule="evenodd" d="M10 0C4.48 0 0 4.48 0 10C0 15.52 4.48 20 10 20C15.52 20 20 15.52 20 10C20 4.48 15.52 0 10 0Z" fill="black"/>
<mask id="mask0" mask-type="alpha" maskUnits="userSpaceOnUse" x="0" y="0" width="20" height="20">
<path fill-rule="evenodd" clip-rule="evenodd" d="M10 0C4.48 0 0 4.48 0 10C0 15.52 4.48 20 10 20C15.52 20 20 15.52 20 10C20 4.48 15.52 0 10 0Z" fill="white"/>
</mask>
<g mask="url(#mask0)">
</g>
<path d="M10.6079 4.01626C9.72579 3.95205 8.84021 4.07852 8.01135 4.38707C7.18249 4.69562 6.42979 5.17902 5.8044 5.8044C5.17902 6.42979 4.69562 7.18249 4.38707 8.01135C4.07852 8.84021 3.95205 9.72579 4.01626 10.6079C4.23824 13.8698 7.08701 16.3301 10.3551 16.3301H12.6304C12.9695 16.3301 13.247 16.0526 13.247 15.7135C13.247 15.3743 12.9695 15.0968 12.6304 15.0968H10.3674C8.06743 15.0968 5.9586 13.6046 5.38515 11.3787C4.46639 7.80228 7.79611 4.46639 11.3725 5.39131C13.6046 5.9586 15.0968 8.06743 15.0968 10.3674V11.0457C15.0968 11.5328 14.659 12.0138 14.1719 12.0138C13.6848 12.0138 13.247 11.5328 13.247 11.0457V10.2749C13.247 8.7272 12.1494 7.33365 10.6202 7.11784C10.1337 7.04549 9.6369 7.09042 9.17124 7.24888C8.70557 7.40734 8.2845 7.67475 7.94308 8.02884C7.60165 8.38293 7.34976 8.81346 7.20836 9.28458C7.06696 9.75571 7.04015 10.2538 7.13017 10.7374C7.23832 11.3201 7.51224 11.8592 7.91909 12.2901C8.32595 12.721 8.84846 13.0254 9.42398 13.1668C10.5586 13.432 11.6376 13.0682 12.3467 12.3467C12.8955 13.099 13.9931 13.4936 14.9982 13.0928C15.8245 12.766 16.3301 11.9213 16.3301 11.0333V10.3612C16.3301 7.08701 13.8698 4.23824 10.6079 4.01626ZM10.1639 12.0138C9.14034 12.0138 8.31407 11.1875 8.31407 10.1639C8.31407 9.14034 9.14034 8.31407 10.1639 8.31407C11.1875 8.31407 12.0138 9.14034 12.0138 10.1639C12.0138 11.1875 11.1875 12.0138 10.1639 12.0138Z" fill="white"/>
</svg>
