<svg width="20" height="18" viewBox="0 0 20 18" fill="none" xmlns="http://www.w3.org/2000/svg">
<path d="M19.0984 8.02125L10.0494 0.148073C9.82257 -0.0493577 9.48592 -0.0493577 9.2591 0.148073L6.03285 2.95335V1.81717C6.03285 1.14854 5.49232 0.60593 4.82634 0.60593C4.16035 0.60593 3.61978 1.14858 3.61978 1.81717V5.05245L0.207707 8.02125C-0.0432472 8.24047 -0.0709899 8.62326 0.14738 8.8764C0.36698 9.12834 0.747043 9.15499 0.999189 8.93696L9.65246 1.40777L18.3045 8.93696C18.4203 9.03629 18.5591 9.08475 18.7002 9.08475C18.8703 9.08475 19.0357 9.01326 19.1551 8.8764C19.3771 8.62326 19.3481 8.2429 19.0984 8.02125Z" fill="white"/>
<path d="M10.6861 4.81365C10.4696 4.63439 10.2035 4.54297 9.9373 4.54297C9.67114 4.54297 9.40498 4.63318 9.18734 4.81365L3.27278 9.68001C2.99833 9.90559 2.83984 10.2416 2.83984 10.5989V16.4151C2.83984 17.0704 3.36979 17.6023 4.02274 17.6023H7.57147V11.6662H12.3031V17.6023H15.8519C16.5036 17.6023 17.0348 17.0704 17.0348 16.4151V10.5989C17.0348 10.2404 16.8751 9.90563 16.6006 9.68122L10.6861 4.81365Z" fill="white"/>
</svg>
