<svg width="26" height="26" viewBox="0 0 26 26" fill="none" xmlns="http://www.w3.org/2000/svg">
<path fill-rule="evenodd" clip-rule="evenodd" d="M12.0457 11.1268C9.81833 10.059 7.06768 10.4479 5.22213 12.2935C2.88161 14.634 2.88161 18.4383 5.22213 20.7788C7.56266 23.1193 11.3669 23.1193 13.7074 20.7788C15.553 18.9332 15.9419 16.1826 14.8741 13.9552L17.9501 10.8793L20.7785 13.7077L23.6069 10.8793L20.7785 8.05085L22.1927 6.63664L19.3643 3.80821L12.0457 11.1268ZM10.879 17.9503C10.1012 18.7282 8.82838 18.7282 8.05056 17.9503C7.27274 17.1725 7.27274 15.8997 8.05056 15.1219C8.82838 14.3441 10.1012 14.3441 10.879 15.1219C11.6568 15.8997 11.6568 17.1725 10.879 17.9503Z" fill="black"/>
<mask id="mask0" mask-type="alpha" maskUnits="userSpaceOnUse" x="3" y="3" width="21" height="20">
<path fill-rule="evenodd" clip-rule="evenodd" d="M12.0457 11.1268C9.81833 10.059 7.06768 10.4479 5.22213 12.2935C2.88161 14.634 2.88161 18.4383 5.22213 20.7788C7.56266 23.1193 11.3669 23.1193 13.7074 20.7788C15.553 18.9332 15.9419 16.1826 14.8741 13.9552L17.9501 10.8793L20.7785 13.7077L23.6069 10.8793L20.7785 8.05085L22.1927 6.63664L19.3643 3.80821L12.0457 11.1268ZM10.879 17.9503C10.1012 18.7282 8.82838 18.7282 8.05056 17.9503C7.27274 17.1725 7.27274 15.8997 8.05056 15.1219C8.82838 14.3441 10.1012 14.3441 10.879 15.1219C11.6568 15.8997 11.6568 17.1725 10.879 17.9503Z" fill="white"/>
</mask>
<g mask="url(#mask0)">
</g>
</svg>
