<svg width="18" height="18" viewBox="0 0 18 18" fill="none" xmlns="http://www.w3.org/2000/svg">
<g clip-path="url(#clip0)">
<path d="M2.92595 8.44904C2.55072 8.82427 2.55072 9.43493 2.92595 9.81384C3.30118 10.1891 3.91185 10.1891 4.29076 9.81384C6.88794 7.21666 11.1148 7.21666 13.712 9.81384C13.8996 10.0015 14.1461 10.0971 14.3925 10.0971C14.639 10.0971 14.8855 10.0015 15.0731 9.81384C15.4483 9.43861 15.4483 8.82794 15.0731 8.44904C11.7255 5.09772 6.27359 5.09772 2.92595 8.44904Z" fill="#FFD403"/>
<path d="M5.53142 11.0544C5.15619 11.4296 5.15619 12.0403 5.53142 12.4192C5.90665 12.7944 6.51732 12.7944 6.89623 12.4192C8.05503 11.2567 9.94589 11.2567 11.1047 12.4192C11.2923 12.6068 11.5388 12.7024 11.7853 12.7024C12.0317 12.7024 12.2782 12.6068 12.4658 12.4192C12.841 12.0439 12.841 11.4333 12.4658 11.058C10.5566 9.14142 7.44436 9.14142 5.53142 11.0544Z" fill="#FFD403"/>
<path d="M9.00067 15.8031C9.70974 15.8031 10.2845 15.2283 10.2845 14.5192C10.2845 13.8102 9.70974 13.2354 9.00067 13.2354C8.29161 13.2354 7.7168 13.8102 7.7168 14.5192C7.7168 15.2283 8.29161 15.8031 9.00067 15.8031Z" fill="#FFD403"/>
<path d="M17.7186 5.80058C12.9105 0.996162 5.08952 0.996162 0.281422 5.80058C-0.0938075 6.17581 -0.0938075 6.78647 0.281422 7.16538C0.656652 7.54061 1.26732 7.54061 1.64623 7.16538C5.70018 3.10775 12.2998 3.10775 16.3575 7.16538C16.5451 7.353 16.7915 7.44865 17.038 7.44865C17.2845 7.44865 17.531 7.353 17.7186 7.16538C18.0938 6.79015 18.0938 6.17949 17.7186 5.80058Z" fill="#FFD403"/>
</g>
<defs>
<clipPath id="clip0">
</clipPath>
</defs>
</svg>
