<svg width="12" height="20" viewBox="0 0 12 20" fill="none" xmlns="http://www.w3.org/2000/svg">
<path d="M9.31255 0H2.21727C1.62922 0 1.06524 0.233605 0.649425 0.649425C0.233605 1.06524 0 1.62922 0 2.21727V17.2947C0 17.8828 0.233605 18.4468 0.649425 18.8626C1.06524 19.2784 1.62922 19.512 2.21727 19.512H9.31255C9.90061 19.512 10.4646 19.2784 10.8804 18.8626C11.2962 18.4468 11.5298 17.8828 11.5298 17.2947V2.21727C11.5298 1.62922 11.2962 1.06524 10.8804 0.649425C10.4646 0.233605 9.90061 0 9.31255 0ZM5.76491 18.6251C5.02878 18.6251 4.43455 18.0309 4.43455 17.2947C4.43455 16.5586 5.02878 15.9644 5.76491 15.9644C6.50105 15.9644 7.09528 16.5586 7.09528 17.2947C7.09528 18.0309 6.50105 18.6251 5.76491 18.6251ZM9.75601 15.0775H1.77382V2.66073H9.75601V15.0775Z" fill="#FFD403"/>
</svg>
