<svg width="18" height="16" viewBox="0 0 18 16" fill="none" xmlns="http://www.w3.org/2000/svg">
<path d="M5 0C4.46957 0 3.96086 0.210714 3.58579 0.585786C3.21071 0.960859 3 1.46957 3 2V6H5V2H13V5H10.5L14 8.5L17.5 5H15V2C15 1.46957 14.7893 0.960859 14.4142 0.585786C14.0391 0.210714 13.5304 0 13 0H5ZM0 8V10H8V8H0ZM0 11V13H8V11H0ZM10 11V13H18V11H10ZM0 14V16H8V14H0ZM10 14V16H18V14H10Z" fill="#FFD403"/>
<path fill-rule="evenodd" clip-rule="evenodd" d="M3.58579 0.585786C3.96086 0.210714 4.46957 0 5 0H13C13.5304 0 14.0391 0.210714 14.4142 0.585786C14.7893 0.960859 15 1.46957 15 2V5H17.5L14 8.5L10.5 5H13V2H5V6H3V2C3 1.46957 3.21071 0.960859 3.58579 0.585786Z" fill="#FFD403"/>
</svg>
