<svg width="16" height="15" viewBox="0 0 16 15" fill="none" xmlns="http://www.w3.org/2000/svg">
<g opacity="0.5">
<path d="M4.43455 0C3.9641 0 3.51292 0.186884 3.18027 0.51954C2.84761 0.852195 2.66073 1.30337 2.66073 1.77382V5.32146H4.43455V1.77382H11.5298V4.43455H9.31255L12.4167 7.53873L15.5209 4.43455H13.3036V1.77382C13.3036 1.30337 13.1168 0.852195 12.7841 0.51954C12.4515 0.186884 12.0003 0 11.5298 0H4.43455ZM0 7.09528V8.8691H7.09528V7.09528H0ZM0 9.75601V11.5298H7.09528V9.75601H0ZM8.8691 9.75601V11.5298H15.9644V9.75601H8.8691ZM0 12.4167V14.1906H7.09528V12.4167H0ZM8.8691 12.4167V14.1906H15.9644V12.4167H8.8691Z" fill="black"/>
<path fill-rule="evenodd" clip-rule="evenodd" d="M3.18067 0.51954C3.51333 0.186884 3.96451 0 4.43495 0H11.5302C12.0007 0 12.4519 0.186884 12.7845 0.51954C13.1172 0.852195 13.3041 1.30337 13.3041 1.77382V4.43455H15.5213L12.4171 7.53873L9.31296 4.43455H11.5302V1.77382H4.43495V5.32146H2.66113V1.77382C2.66113 1.30337 2.84802 0.852195 3.18067 0.51954Z" fill="black"/>
</g>
</svg>
