<svg width="19" height="16" viewBox="0 0 19 16" fill="none" xmlns="http://www.w3.org/2000/svg">
<path d="M5.14355 0C4.61312 0 4.10441 0.210714 3.72934 0.585786C3.35427 0.960859 3.14355 1.46957 3.14355 2V6H5.14355V2H13.1436V5H10.6436L14.1436 8.5L17.6436 5H15.1436V2C15.1436 1.46957 14.9328 0.960859 14.5578 0.585786C14.1827 0.210714 13.674 0 13.1436 0H5.14355ZM0.143555 8V10H8.14355V8H0.143555ZM0.143555 11V13H8.14355V11H0.143555ZM10.1436 11V13H18.1436V11H10.1436ZM0.143555 14V16H8.14355V14H0.143555ZM10.1436 14V16H18.1436V14H10.1436Z" fill="white"/>
<path fill-rule="evenodd" clip-rule="evenodd" d="M3.72934 0.585786C4.10441 0.210714 4.61312 0 5.14355 0H13.1436C13.674 0 14.1827 0.210714 14.5578 0.585786C14.9328 0.960859 15.1436 1.46957 15.1436 2V5H17.6436L14.1436 8.5L10.6436 5H13.1436V2H5.14355V6H3.14355V2C3.14355 1.46957 3.35427 0.960859 3.72934 0.585786Z" fill="white"/>
</svg>
