<svg width="20" height="18" viewBox="0 0 20 18" fill="none" xmlns="http://www.w3.org/2000/svg">
<path d="M6.83352 11.0068V5.53192C6.83352 4.65249 7.54249 3.93956 8.41703 3.93956H12.2276V2.15877C12.2276 1.27934 11.5186 0.566406 10.6441 0.566406H3.02296C2.14842 0.566339 1.43945 1.27934 1.43945 2.15877V7.63368C1.43945 10.6294 3.85446 13.0579 6.83355 13.0579C6.96593 13.0579 7.09709 13.0529 7.2271 13.0435C6.97349 12.4145 6.83352 11.7272 6.83352 11.0068Z" fill="white"/>
<path fill-rule="evenodd" clip-rule="evenodd" d="M0.87207 7.89844C0.87207 11.3098 3.6644 14.0852 7.09659 14.0852C7.24542 14.0852 7.39803 14.0797 7.55023 14.0686C7.72243 14.0563 7.8782 13.9629 7.96936 13.8173C8.06053 13.6717 8.07611 13.4915 8.01126 13.3325C7.76227 12.7222 7.63604 12.0761 7.63604 11.4123V5.70893C7.63604 5.08992 8.14266 4.58626 8.76549 4.58626H12.7816C13.0795 4.58626 13.321 4.34618 13.321 4.05011V2.19497C13.321 0.984639 12.3304 0 11.1126 0H3.08035C1.86271 0 0.87207 0.984709 0.87207 2.19504V7.89844ZM1.95087 2.19487C1.95087 1.57582 2.45757 1.07217 3.08032 1.07217V1.0722H11.1126C11.7354 1.0722 12.2421 1.57582 12.2421 2.19487V3.51384H8.76535C7.54772 3.51384 6.55707 4.49848 6.55707 5.7088V11.4122C6.55707 11.954 6.62674 12.4862 6.76476 13.0022C4.08156 12.8316 1.95087 10.6075 1.95087 7.89828V2.19487Z" fill="white"/>
<path d="M12.7812 17.5988C9.34897 17.5988 6.55664 14.8234 6.55664 11.412V5.70864C6.55664 4.49831 7.54729 3.51367 8.76492 3.51367H16.7972C18.0149 3.51367 19.0055 4.49831 19.0055 5.70864V7.56111C19.0055 7.85717 18.764 8.09726 18.4661 8.09726C18.1682 8.09726 17.9267 7.85717 17.9267 7.56111V5.70864C17.9267 5.08959 17.42 4.58597 16.7972 4.58597H8.765C8.14217 4.58597 7.63555 5.08962 7.63555 5.70864V11.412C7.63555 14.2322 9.94385 16.5265 12.7812 16.5265C15.6185 16.5265 17.9268 14.2322 17.9268 11.412V10.5558C17.9268 10.2597 18.1684 10.0196 18.4663 10.0196C18.7641 10.0196 19.0057 10.2597 19.0057 10.5558V11.412C19.0056 14.8235 16.2134 17.5988 12.7812 17.5988Z" fill="white"/>
<path d="M10.6505 9.72366H9.57164C9.27378 9.72366 9.03223 9.48358 9.03223 9.18751C9.03223 8.89145 9.27378 8.65137 9.57164 8.65137H10.6505C10.9483 8.65137 11.1899 8.89145 11.1899 9.18751C11.1899 9.48358 10.9484 9.72366 10.6505 9.72366Z" fill="white"/>
<path d="M15.9903 9.72366H14.9115C14.6136 9.72366 14.3721 9.48358 14.3721 9.18751C14.3721 8.89145 14.6136 8.65137 14.9115 8.65137H15.9903C16.2882 8.65137 16.5297 8.89145 16.5297 9.18751C16.5297 9.48358 16.2882 9.72366 15.9903 9.72366Z" fill="white"/>
<path d="M12.7812 14.7114C11.6836 14.7114 10.7093 14.0917 10.299 13.1328C10.1825 12.8604 10.3101 12.5455 10.5843 12.4297C10.8585 12.3138 11.1753 12.4408 11.2917 12.7132C11.5287 13.267 12.1272 13.6391 12.7811 13.6391C13.435 13.6391 14.0336 13.2671 14.2705 12.7132C14.387 12.4407 14.7038 12.3137 14.978 12.4297C15.2522 12.5455 15.3799 12.8604 15.2633 13.1328C14.8531 14.0918 13.8788 14.7114 12.7812 14.7114Z" fill="white"/>
<path d="M4.96493 6.20901H3.8861C3.58823 6.20901 3.34668 5.96893 3.34668 5.67287C3.34668 5.37681 3.58823 5.13672 3.8861 5.13672H4.96493C5.2628 5.13672 5.50435 5.37681 5.50435 5.67287C5.50435 5.96893 5.2628 6.20901 4.96493 6.20901Z" fill="black"/>
<path d="M5.11058 11.1977C5.04017 11.1977 4.96859 11.1839 4.89977 11.1548C4.62556 11.0389 4.49785 10.7241 4.61448 10.4516C5.02473 9.49263 5.99908 8.87305 7.09669 8.87305C7.39455 8.87305 7.6361 9.11313 7.6361 9.40919C7.6361 9.70526 7.39455 9.94534 7.09669 9.94534C6.4428 9.94534 5.84419 10.3174 5.60728 10.8712C5.51998 11.0752 5.32043 11.1977 5.11058 11.1977Z" fill="black"/>
</svg>
