<svg width="16" height="13" viewBox="0 0 16 13" fill="none" xmlns="http://www.w3.org/2000/svg">
<path d="M2.59432 5.79857C2.26153 6.13137 2.26153 6.67298 2.59432 7.00903C2.92712 7.34183 3.46873 7.34183 3.80478 7.00903C6.10825 4.70557 9.85709 4.70557 12.1606 7.00903C12.3269 7.17543 12.5455 7.26026 12.7642 7.26026C12.9828 7.26026 13.2014 7.17543 13.3677 7.00903C13.7005 6.67624 13.7005 6.13463 13.3677 5.79857C10.3987 2.82626 5.56338 2.82626 2.59432 5.79857Z" fill="black"/>
<path d="M4.90585 8.10993C4.57305 8.44273 4.57305 8.98434 4.90585 9.3204C5.23864 9.65319 5.78025 9.65319 6.11631 9.3204C7.14406 8.28938 8.82108 8.28938 9.84883 9.3204C10.0152 9.48679 10.2338 9.57162 10.4524 9.57162C10.671 9.57162 10.8896 9.48679 11.056 9.3204C11.3888 8.9876 11.3888 8.44599 11.056 8.1132C9.36269 6.41333 6.60245 6.41333 4.90585 8.10993Z" fill="black"/>
<path d="M7.98145 12.3213C8.61033 12.3213 9.12014 11.8115 9.12014 11.1826C9.12014 10.5537 8.61033 10.0439 7.98145 10.0439C7.35258 10.0439 6.84277 10.5537 6.84277 11.1826C6.84277 11.8115 7.35258 12.3213 7.98145 12.3213Z" fill="black"/>
<path d="M15.7148 3.44972C11.4504 -0.811364 4.51394 -0.811364 0.249596 3.44972C-0.0831988 3.78251 -0.0831988 4.32412 0.249596 4.66018C0.582391 4.99297 1.124 4.99297 1.46006 4.66018C5.05555 1.06142 10.9088 1.06142 14.5076 4.66018C14.674 4.82658 14.8926 4.91141 15.1112 4.91141C15.3298 4.91141 15.5484 4.82658 15.7148 4.66018C16.0476 4.32738 16.0476 3.78578 15.7148 3.44972Z" fill="black"/>
</svg>
